<svg xmlns="http://www.w3.org/2000/svg" version="1.1" xmlns:xlink="http://www.w3.org/1999/xlink" xmlns:svgjs="http://svgjs.dev/svgjs" width="1920" height="1080" preserveAspectRatio="none" viewBox="0 0 1920 1080"><g mask="url(&quot;#SvgjsMask1197&quot;)" fill="none"><rect width="1920" height="1080" x="0" y="0" fill="#0e2a47"></rect><path d="M52 1080L1132 0L1412.5 0L332.5 1080z" fill="url(&quot;#SvgjsLinearGradient1198&quot;)"></path><path d="M654.6 1080L1734.6 0L2633.1 0L1553.1 1080z" fill="url(&quot;#SvgjsLinearGradient1198&quot;)"></path><path d="M1832 1080L752 0L342.5 0L1422.5 1080z" fill="url(&quot;#SvgjsLinearGradient1199&quot;)"></path><path d="M1186.4 1080L106.40000000000009 0L-507.0999999999999 0L572.9000000000001 1080z" fill="url(&quot;#SvgjsLinearGradient1199&quot;)"></path><path d="M1049.3482710659723 1080L1920 209.34827106597243L1920 1080z" fill="url(&quot;#SvgjsLinearGradient1198&quot;)"></path><path d="M0 1080L870.6517289340276 1080L 0 209.34827106597243z" fill="url(&quot;#SvgjsLinearGradient1199&quot;)"></path></g><defs><mask id="SvgjsMask1197"><rect width="1920" height="1080" fill="#ffffff"></rect></mask><linearGradient x1="0%" y1="100%" x2="100%" y2="0%" id="SvgjsLinearGradient1198"><stop stop-color="rgba(15, 70, 185, 0.2)" offset="0"></stop><stop stop-opacity="0" stop-color="rgba(15, 70, 185, 0.2)" offset="0.66"></stop></linearGradient><linearGradient x1="100%" y1="100%" x2="0%" y2="0%" id="SvgjsLinearGradient1199"><stop stop-color="rgba(15, 70, 185, 0.2)" offset="0"></stop><stop stop-opacity="0" stop-color="rgba(15, 70, 185, 0.2)" offset="0.66"></stop></linearGradient></defs></svg>