<svg xmlns="http://www.w3.org/2000/svg" version="1.1" xmlns:xlink="http://www.w3.org/1999/xlink" xmlns:svgjs="http://svgjs.dev/svgjs" width="1920" height="1080" preserveAspectRatio="none" viewBox="0 0 1920 1080"><g mask="url(&quot;#SvgjsMask3354&quot;)" fill="none"><rect width="1920" height="1080" x="0" y="0" fill="url(&quot;#SvgjsRadialGradient3355&quot;)"></rect><path d="M0 0L362.31 0L0 455.49z" fill="rgba(255, 255, 255, .1)"></path><path d="M0 455.49L362.31 0L869.47 0L0 745.53z" fill="rgba(255, 255, 255, .075)"></path><path d="M0 745.53L869.47 0L1144.97 0L0 750.17z" fill="rgba(255, 255, 255, .05)"></path><path d="M0 750.17L1144.97 0L1679.94 0L0 842.4599999999999z" fill="rgba(255, 255, 255, .025)"></path><path d="M1920 1080L1615.62 1080L1920 1077.04z" fill="rgba(0, 0, 0, .1)"></path><path d="M1920 1077.04L1615.62 1080L1368.4399999999998 1080L1920 1054.12z" fill="rgba(0, 0, 0, .075)"></path><path d="M1920 1054.12L1368.44 1080L779.1300000000001 1080L1920 510.1099999999999z" fill="rgba(0, 0, 0, .05)"></path><path d="M1920 510.11L779.1300000000001 1080L606.6800000000001 1080L1920 238.91000000000003z" fill="rgba(0, 0, 0, .025)"></path></g><defs><mask id="SvgjsMask3354"><rect width="1920" height="1080" fill="#ffffff"></rect></mask><radialGradient cx="50%" cy="50%" r="1101.45" gradientUnits="userSpaceOnUse" id="SvgjsRadialGradient3355"><stop stop-color="rgba(14, 42, 71, 1)" offset="0"></stop><stop stop-color="rgba(0, 179, 255, 1)" offset="0"></stop></radialGradient></defs></svg>