<svg xmlns="http://www.w3.org/2000/svg" version="1.1" xmlns:xlink="http://www.w3.org/1999/xlink" xmlns:svgjs="http://svgjs.dev/svgjs" width="1440" height="560" preserveAspectRatio="none" viewBox="0 0 1440 560"><g mask="url(&quot;#SvgjsMask1155&quot;)" fill="none"><rect width="1440" height="560" x="0" y="0" fill="url(&quot;#SvgjsLinearGradient1156&quot;)"></rect><path d="M -459.5739426594424,250 C -363.57,279.4 -171.57,392.8 20.426057340557584,397 C 212.43,401.2 308.43,280.4 500.4260573405576,271 C 692.43,261.6 788.43,358 980.4260573405576,350 C 1172.43,342 1368.51,230.8 1460.4260573405577,231 C 1552.34,231.2 1444.09,327 1440,351" stroke="rgba(51, 121, 194, 0.58)" stroke-width="2"></path><path d="M -36.52349618720126,160 C 59.48,193 251.48,328.4 443.47650381279874,325 C 635.48,321.6 731.48,121 923.4765038127987,143 C 1115.48,165 1211.48,428.6 1403.4765038127987,435 C 1595.48,441.4 1876.17,181.8 1883.4765038127987,175 C 1890.78,168.2 1528.7,355.8 1440,401" stroke="rgba(51, 121, 194, 0.58)" stroke-width="2"></path><path d="M -442.2659536847289,393 C -346.27,359.8 -154.27,226.8 37.73404631527107,227 C 229.73,227.2 325.73,413.4 517.734046315271,394 C 709.73,374.6 805.73,133.6 997.734046315271,130 C 1189.73,126.4 1389.28,360.2 1477.7340463152711,376 C 1566.19,391.8 1447.55,242.4 1440,209" stroke="rgba(51, 121, 194, 0.58)" stroke-width="2"></path><path d="M -113.48052567235493,337 C -17.48,315.4 174.52,212.8 366.51947432764507,229 C 558.52,245.2 654.52,437.2 846.5194743276451,418 C 1038.52,398.8 1134.52,130.2 1326.5194743276452,133 C 1518.52,135.8 1783.82,431 1806.5194743276452,432 C 1829.22,433 1513.3,196.8 1440,138" stroke="rgba(51, 121, 194, 0.58)" stroke-width="2"></path><path d="M -210.47887158831446,361 C -114.48,318.2 77.52,150.8 269.52112841168554,147 C 461.52,143.2 557.52,321.2 749.5211284116856,342 C 941.52,362.8 1037.52,249.8 1229.5211284116856,251 C 1421.52,252.2 1667.43,371.6 1709.5211284116856,348 C 1751.62,324.4 1493.9,176 1440,133" stroke="rgba(51, 121, 194, 0.58)" stroke-width="2"></path><path d="M -170.3809858492845,223 C -74.38,239.8 117.62,327.8 309.6190141507155,307 C 501.62,286.2 597.62,120.6 789.6190141507154,119 C 981.62,117.4 1077.62,283 1269.6190141507154,299 C 1461.62,315 1715.54,190.6 1749.6190141507154,199 C 1783.7,207.4 1501.92,312.6 1440,341" stroke="rgba(51, 121, 194, 0.58)" stroke-width="2"></path><path d="M -590.4404446027269,342 C -494.44,305.6 -302.44,158 -110.44044460272684,160 C 81.56,162 177.56,335.4 369.55955539727313,352 C 561.56,368.6 657.56,237 849.5595553972731,243 C 1041.56,249 1211.47,407.2 1329.5595553972732,382 C 1447.65,356.8 1417.91,170 1440,117" stroke="rgba(51, 121, 194, 0.58)" stroke-width="2"></path><path d="M -920.5561772273435,343 C -824.56,320.6 -632.56,227.4 -440.5561772273435,231 C -248.56,234.6 -152.56,376 39.44382277265652,361 C 231.44,346 327.44,144 519.4438227726565,156 C 711.44,168 815.33,396.8 999.4438227726565,421 C 1183.56,445.2 1351.89,305.8 1440,277" stroke="rgba(51, 121, 194, 0.58)" stroke-width="2"></path><path d="M -412.67655099848577,140 C -316.68,188.8 -124.68,365.4 67.32344900151425,384 C 259.32,402.6 355.32,230.4 547.3234490015143,233 C 739.32,235.6 835.32,400.2 1027.3234490015143,397 C 1219.32,393.8 1424.79,223.6 1507.3234490015143,217 C 1589.86,210.4 1453.46,334.6 1440,364" stroke="rgba(51, 121, 194, 0.58)" stroke-width="2"></path><path d="M -786.1145558138023,343 C -690.11,313.6 -498.11,195.4 -306.11455581380227,196 C -114.11,196.6 -18.11,354.4 173.88544418619773,346 C 365.89,337.6 461.89,134.8 653.8854441861977,154 C 845.89,173.2 976.66,429.2 1133.8854441861977,442 C 1291.11,454.8 1378.78,262.8 1440,218" stroke="rgba(51, 121, 194, 0.58)" stroke-width="2"></path></g><defs><mask id="SvgjsMask1155"><rect width="1440" height="560" fill="#ffffff"></rect></mask><linearGradient x1="15.28%" y1="-39.29%" x2="84.72%" y2="139.29%" gradientUnits="userSpaceOnUse" id="SvgjsLinearGradient1156"><stop stop-color="#0e2a47" offset="0"></stop><stop stop-color="#00459e" offset="1"></stop></linearGradient></defs></svg>